<?xml version="1.0" standalone="no"?><!DOCTYPE svg PUBLIC "-//W3C//DTD SVG 1.1//EN" "http://www.w3.org/Graphics/SVG/1.1/DTD/svg11.dtd"><svg height="1291" node-id="1" sillyvg="true" template-height="1291" template-width="1430" version="1.1" viewBox="0 0 1430 1291" width="1430" xmlns="http://www.w3.org/2000/svg" xmlns:xlink="http://www.w3.org/1999/xlink"><defs node-id="39"><linearGradient gradientUnits="userSpaceOnUse" id="_未命名的渐变_10" node-id="5" spreadMethod="pad" x1="714.93" x2="714.93" y1="1290.92" y2="995.69"><stop offset="0" stop-color="#f7fbff" stop-opacity="0.5"></stop><stop offset="1" stop-color="#ecf5ff"></stop></linearGradient><linearGradient gradientUnits="userSpaceOnUse" id="_未命名的渐变_14" node-id="8" spreadMethod="pad" x1="267.06" x2="594.45" y1="202.25" y2="202.25"><stop offset="0" stop-color="#dcedff"></stop><stop offset="1" stop-color="#d0e4f1"></stop></linearGradient><linearGradient gradientUnits="userSpaceOnUse" id="_未命名的渐变_15" node-id="11" spreadMethod="pad" x1="1227.25" x2="1007.27" y1="66.57" y2="66.57"><stop offset="0" stop-color="#f7fbff"></stop><stop offset="1" stop-color="#ecf5ff"></stop></linearGradient><linearGradient gradientUnits="userSpaceOnUse" id="_未命名的渐变_14-2" node-id="14" spreadMethod="pad" x1="754.19" x2="754.19" y1="998.75" y2="475.29"><stop offset="0" stop-color="#d0e4f1"></stop><stop offset="1" stop-color="#d0e4f1"></stop></linearGradient></defs><g node-id="117"><path d="M 1429.86 1143.31 C 1429.86 1182.46 1354.54 1220.01 1220.46 1247.69 C 1086.39 1275.38 904.54 1290.93 714.93 1290.93 C 525.32 1290.93 343.47 1275.38 209.40 1247.69 C 75.32 1220.01 0.00 1182.46 0.00 1143.31 C 0.00 1104.16 75.32 1066.61 209.40 1038.93 C 343.47 1011.24 525.32 995.69 714.93 995.69 C 904.54 995.69 1086.39 1011.24 1220.46 1038.93 C 1354.54 1066.61 1429.86 1104.16 1429.86 1143.31 Z" fill="url(#_未命名的渐变_10)" fill-rule="nonzero" group-id="1" node-id="69" stroke="none" target-height="295.24005" target-width="1429.86" target-x="0" target-y="995.69"></path><g node-id="118"><path d="M 1162.16 989.30 L 1176.10 989.30 C 1178.02 989.30 1179.58 990.86 1179.58 992.78 L 1179.58 992.78 L 1179.58 1055.50 C 1179.58 1059.35 1176.46 1062.47 1172.61 1062.47 L 1165.64 1062.47 C 1161.79 1062.47 1158.67 1059.35 1158.67 1055.50 L 1158.67 1055.50 L 1158.67 992.78 C 1158.67 990.86 1160.23 989.30 1162.15 989.30 L 1162.15 989.30 Z" fill="#e9f0f4" fill-rule="nonzero" group-id="1,2" node-id="73" stroke="none" target-height="73.16998" target-width="20.909912" target-x="1158.67" target-y="989.3"></path><path d="M 1169.13 846.43 L 1169.13 1020.66 L 1099.44 989.30 L 1169.13 846.43 Z" fill="#e1eaef" fill-rule="nonzero" group-id="1,2" node-id="75" stroke="none" target-height="174.22998" target-width="69.69006" target-x="1099.44" target-y="846.43"></path><path d="M 1169.13 846.43 L 1169.13 1020.66 L 1238.82 989.30 L 1169.13 846.43 Z" fill="#f5f7fa" fill-rule="nonzero" group-id="1,2" node-id="77" stroke="none" target-height="174.22998" target-width="69.68994" target-x="1169.13" target-y="846.43"></path></g><g node-id="119"><path d="M 1263.74 988.50 L 1282.24 988.50 C 1284.79 988.50 1286.87 990.57 1286.87 993.13 L 1286.87 993.13 L 1286.87 1076.38 C 1286.87 1081.49 1282.73 1085.63 1277.62 1085.63 L 1268.37 1085.63 C 1263.26 1085.63 1259.12 1081.49 1259.12 1076.38 L 1259.12 1076.38 L 1259.12 993.13 C 1259.12 990.58 1261.19 988.50 1263.75 988.50 L 1263.75 988.50 Z" fill="#e9f0f4" fill-rule="nonzero" group-id="1,3" node-id="82" stroke="none" target-height="97.130005" target-width="27.75" target-x="1259.12" target-y="988.5"></path><path d="M 1272.99 798.87 L 1272.99 1030.13 L 1180.49 988.50 L 1272.99 798.87 Z" fill="#e1eaef" fill-rule="nonzero" group-id="1,3" node-id="84" stroke="none" target-height="231.26001" target-width="92.5" target-x="1180.49" target-y="798.87"></path><path d="M 1272.99 798.87 L 1272.99 1030.13 L 1365.49 988.50 L 1272.99 798.87 Z" fill="#f5f7fa" fill-rule="nonzero" group-id="1,3" node-id="86" stroke="none" target-height="231.26001" target-width="92.5" target-x="1272.99" target-y="798.87"></path></g><g node-id="120"><path d="M 244.89 976.92 L 263.39 976.92 C 265.94 976.92 268.02 978.99 268.02 981.55 L 268.02 981.55 L 268.02 1064.80 C 268.02 1069.91 263.88 1074.05 258.77 1074.05 L 249.52 1074.05 C 244.41 1074.05 240.27 1069.91 240.27 1064.80 L 240.27 1064.80 L 240.27 981.55 C 240.27 979.00 242.34 976.92 244.90 976.92 L 244.90 976.92 Z" fill="#e9f0f4" fill-rule="nonzero" group-id="1,4" node-id="91" stroke="none" target-height="97.130066" target-width="27.749985" target-x="240.27" target-y="976.92"></path><path d="M 254.14 787.29 L 254.14 1018.55 L 161.64 976.92 L 254.14 787.29 Z" fill="#e1eaef" fill-rule="nonzero" group-id="1,4" node-id="93" stroke="none" target-height="231.26001" target-width="92.5" target-x="161.64" target-y="787.29"></path><path d="M 254.14 787.29 L 254.14 1018.55 L 346.64 976.92 L 254.14 787.29 Z" fill="#f5f7fa" fill-rule="nonzero" group-id="1,4" node-id="95" stroke="none" target-height="231.26001" target-width="92.500015" target-x="254.14" target-y="787.29"></path></g><path d="M 549.95 231.56 C 597.69 231.56 648.46 213.77 700.46 225.77 C 775.72 243.14 845.74 294.53 955.17 382.07 C 1013.06 428.38 1136.90 413.70 1198.30 434.17 C 1267.77 457.33 1337.23 544.16 1337.23 544.16" fill="none" group-id="1" node-id="98" stroke="#f1f2f4" stroke-linecap="butt" stroke-width="1" target-height="330.38995" target-width="787.27997" target-x="549.95" target-y="213.77"></path><path d="M 522.73 286.07 L 470.63 254.91 L 499.62 231.44 L 522.72 286.07 L 522.72 286.07 Z M 594.45 130.57 L 512.66 198.65 L 355.65 149.42 L 489.86 217.22 L 402.67 290.61 L 267.05 113.90 L 594.44 130.57 L 594.44 130.57 Z" fill="url(#_未命名的渐变_14)" fill-rule="nonzero" group-id="1" node-id="100" stroke="none" target-height="176.70999" target-width="327.40002" target-x="267.05" target-y="113.9"></path><path d="M 1204.13 65.71 C 1204.05 65.68 1203.99 65.60 1203.99 65.52 C 1204.02 28.87 1175.53 0.00 1140.41 0.00 C 1119.72 0.00 1101.40 9.91 1089.77 25.19 C 1089.72 25.26 1089.63 25.29 1089.55 25.26 C 1085.52 23.92 1081.22 23.16 1076.74 23.16 C 1054.36 23.16 1036.22 41.30 1036.22 63.68 C 1036.22 63.85 1036.24 64.02 1036.25 64.20 C 1019.35 67.03 1006.57 82.02 1007.31 99.88 C 1008.09 118.79 1024.84 133.15 1043.76 133.15 L 1191.12 133.15 C 1209.06 133.15 1225.09 120.16 1227.05 102.33 C 1228.88 85.56 1218.76 70.91 1204.14 65.71 Z" fill="url(#_未命名的渐变_15)" fill-rule="nonzero" group-id="1" node-id="102" stroke="none" target-height="133.15" target-width="222.31" target-x="1006.57" target-y="0"></path><path d="M 431.32 1169.86 C 431.32 1182.86 557.98 1193.49 714.93 1193.49 C 871.88 1193.49 998.54 1182.85 998.54 1169.86 C 998.54 1156.87 871.86 1146.21 714.93 1146.21 C 557.98 1146.12 431.32 1156.25 431.32 1169.84" fill="#ced6dd" fill-opacity="0.3" fill-rule="nonzero" group-id="1,5" node-id="106" stroke="none" target-height="47.369995" target-width="567.22" target-x="431.32" target-y="1146.12"></path><path d="M 570.97 475.29 L 937.40 475.29 C 951.85 475.29 963.57 487.01 963.57 501.46 L 963.57 972.58 C 963.57 987.03 951.85 998.75 937.40 998.75 L 570.97 998.75 C 556.52 998.75 544.80 987.03 544.80 972.58 L 544.80 501.46 C 544.80 487.01 556.52 475.29 570.97 475.29 Z" fill="url(#_未命名的渐变_14-2)" fill-rule="nonzero" group-id="1,6" node-id="111" stroke="none" target-height="523.45996" target-width="418.77002" target-x="544.8" target-y="475.29"></path><path d="M 492.46 553.81 L 858.88 553.81 C 876.33 553.81 885.05 562.54 885.05 579.98 L 885.05 1051.09 C 885.05 1068.54 876.33 1077.26 858.88 1077.26 L 492.46 1077.26 C 475.01 1077.26 466.29 1068.53 466.29 1051.09 L 466.29 579.98 C 466.29 562.53 475.02 553.81 492.46 553.81 Z" fill="#ffffff" fill-rule="nonzero" group-id="1,6" node-id="113" stroke="none" target-height="523.45" target-width="418.75998" target-x="466.29" target-y="553.81"></path><path d="M 688.76 920.23 C 695.99 920.17 701.89 925.99 701.95 933.22 C 702.01 940.45 696.19 946.35 688.96 946.41 C 688.89 946.41 688.83 946.41 688.76 946.41 L 557.90 946.41 C 550.67 946.35 544.86 940.45 544.91 933.22 C 544.96 926.07 550.75 920.29 557.90 920.23 C 557.90 920.23 688.76 920.23 688.76 920.23 Z M 741.11 841.71 C 748.34 841.65 754.24 847.47 754.30 854.70 C 754.36 861.93 748.54 867.83 741.31 867.89 C 741.24 867.89 741.18 867.89 741.11 867.89 L 557.90 867.89 C 550.67 867.83 544.86 861.93 544.91 854.70 C 544.96 847.55 550.75 841.77 557.90 841.71 L 741.11 841.71 Z M 793.46 763.19 C 800.69 763.13 806.59 768.95 806.65 776.18 C 806.71 783.41 800.89 789.31 793.66 789.37 C 793.59 789.37 793.53 789.37 793.46 789.37 L 557.90 789.37 C 550.67 789.31 544.86 783.41 544.91 776.18 C 544.96 769.03 550.75 763.25 557.90 763.19 L 793.46 763.19 Z M 793.46 684.67 C 800.69 684.73 806.50 690.63 806.45 697.86 C 806.40 705.01 800.61 710.79 793.46 710.85 L 557.90 710.85 C 550.67 710.79 544.86 704.89 544.91 697.66 C 544.96 690.51 550.75 684.73 557.90 684.67 L 793.46 684.67 Z" fill="#edf0f2" fill-rule="nonzero" group-id="1,6" node-id="115" stroke="none" target-height="261.74" target-width="261.85004" target-x="544.86" target-y="684.67"></path></g></svg>