<?xml version="1.0" standalone="no"?><!DOCTYPE svg PUBLIC "-//W3C//DTD SVG 1.1//EN" "http://www.w3.org/Graphics/SVG/1.1/DTD/svg11.dtd"><svg height="1291" node-id="1" sillyvg="true" template-height="1291" template-width="1430" version="1.1" viewBox="0 0 1430 1291" width="1430" xmlns="http://www.w3.org/2000/svg" xmlns:xlink="http://www.w3.org/1999/xlink"><defs node-id="48"><linearGradient gradientUnits="userSpaceOnUse" id="_未命名的渐变_10" node-id="5" spreadMethod="pad" x1="714.93" x2="714.93" y1="1290.92" y2="995.69"><stop offset="0" stop-color="#f7fbff" stop-opacity="0.5"></stop><stop offset="1" stop-color="#ecf5ff"></stop></linearGradient><linearGradient gradientUnits="userSpaceOnUse" id="_未命名的渐变_15" node-id="8" spreadMethod="pad" x1="1227.25" x2="1007.27" y1="66.57" y2="66.57"><stop offset="0" stop-color="#f7fbff"></stop><stop offset="1" stop-color="#ecf5ff"></stop></linearGradient><linearGradient gradientUnits="userSpaceOnUse" id="_未命名的渐变_15-2" node-id="11" spreadMethod="pad" x1="344.06" x2="191.03" y1="283.66" y2="283.66"><stop offset="0" stop-color="#f7fbff"></stop><stop offset="1" stop-color="#ecf5ff"></stop></linearGradient><linearGradient gradientUnits="userSpaceOnUse" id="_未命名的渐变_56" node-id="12" spreadMethod="pad" x1="694.67" x2="694.67" y1="784.79" y2="457.32"><stop offset="0" stop-color="#ffffff"></stop><stop offset="1" stop-color="#d0e4f1"></stop></linearGradient><linearGradient gradientUnits="userSpaceOnUse" id="_未命名的渐变_14" node-id="15" spreadMethod="pad" x1="694.67" x2="694.67" y1="833.6" y2="619.41"><stop offset="0" stop-color="#ffffff"></stop><stop offset="1" stop-color="#d0e4f1"></stop></linearGradient><linearGradient gradientUnits="userSpaceOnUse" id="_未命名的渐变_64" node-id="18" spreadMethod="pad" x1="700.46" x2="700.46" y1="1042" y2="758.35"><stop offset="0" stop-color="#eefaff" stop-opacity="0"></stop><stop offset="1" stop-color="#eefaff"></stop></linearGradient></defs><g node-id="144"><path d="M 1429.86 1143.31 C 1429.86 1182.46 1354.54 1220.01 1220.46 1247.69 C 1086.39 1275.38 904.54 1290.93 714.93 1290.93 C 525.32 1290.93 343.47 1275.38 209.40 1247.69 C 75.32 1220.01 0.00 1182.46 0.00 1143.31 C 0.00 1104.16 75.32 1066.61 209.40 1038.93 C 343.47 1011.24 525.32 995.69 714.93 995.69 C 904.54 995.69 1086.39 1011.24 1220.46 1038.93 C 1354.54 1066.61 1429.86 1104.16 1429.86 1143.31 Z" fill="url(#_未命名的渐变_10)" fill-rule="nonzero" group-id="1" node-id="90" stroke="none" target-height="295.24005" target-width="1429.86" target-x="0" target-y="995.69"></path><g node-id="145"><path d="M 1162.16 989.30 L 1176.10 989.30 C 1178.02 989.30 1179.58 990.86 1179.58 992.78 L 1179.58 992.78 L 1179.58 1055.50 C 1179.58 1059.35 1176.46 1062.47 1172.61 1062.47 L 1165.64 1062.47 C 1161.79 1062.47 1158.67 1059.35 1158.67 1055.50 L 1158.67 1055.50 L 1158.67 992.78 C 1158.67 990.86 1160.23 989.30 1162.15 989.30 L 1162.15 989.30 Z" fill="#e9f0f4" fill-rule="nonzero" group-id="1,2" node-id="94" stroke="none" target-height="73.16998" target-width="20.909912" target-x="1158.67" target-y="989.3"></path><path d="M 1169.13 846.43 L 1169.13 1020.66 L 1099.44 989.30 L 1169.13 846.43 Z" fill="#e1eaef" fill-rule="nonzero" group-id="1,2" node-id="96" stroke="none" target-height="174.22998" target-width="69.69006" target-x="1099.44" target-y="846.43"></path><path d="M 1169.13 846.43 L 1169.13 1020.66 L 1238.82 989.30 L 1169.13 846.43 Z" fill="#f5f7fa" fill-rule="nonzero" group-id="1,2" node-id="98" stroke="none" target-height="174.22998" target-width="69.68994" target-x="1169.13" target-y="846.43"></path></g><g node-id="146"><path d="M 1263.74 988.50 L 1282.24 988.50 C 1284.79 988.50 1286.87 990.57 1286.87 993.13 L 1286.87 993.13 L 1286.87 1076.38 C 1286.87 1081.49 1282.73 1085.63 1277.62 1085.63 L 1268.37 1085.63 C 1263.26 1085.63 1259.12 1081.49 1259.12 1076.38 L 1259.12 1076.38 L 1259.12 993.13 C 1259.12 990.58 1261.19 988.50 1263.75 988.50 L 1263.75 988.50 Z" fill="#e9f0f4" fill-rule="nonzero" group-id="1,3" node-id="103" stroke="none" target-height="97.130005" target-width="27.75" target-x="1259.12" target-y="988.5"></path><path d="M 1272.99 798.87 L 1272.99 1030.13 L 1180.49 988.50 L 1272.99 798.87 Z" fill="#e1eaef" fill-rule="nonzero" group-id="1,3" node-id="105" stroke="none" target-height="231.26001" target-width="92.5" target-x="1180.49" target-y="798.87"></path><path d="M 1272.99 798.87 L 1272.99 1030.13 L 1365.49 988.50 L 1272.99 798.87 Z" fill="#f5f7fa" fill-rule="nonzero" group-id="1,3" node-id="107" stroke="none" target-height="231.26001" target-width="92.5" target-x="1272.99" target-y="798.87"></path></g><g node-id="147"><path d="M 244.89 976.92 L 263.39 976.92 C 265.94 976.92 268.02 978.99 268.02 981.55 L 268.02 981.55 L 268.02 1064.80 C 268.02 1069.91 263.88 1074.05 258.77 1074.05 L 249.52 1074.05 C 244.41 1074.05 240.27 1069.91 240.27 1064.80 L 240.27 1064.80 L 240.27 981.55 C 240.27 979.00 242.34 976.92 244.90 976.92 L 244.90 976.92 Z" fill="#e9f0f4" fill-rule="nonzero" group-id="1,4" node-id="112" stroke="none" target-height="97.130066" target-width="27.749985" target-x="240.27" target-y="976.92"></path><path d="M 254.14 787.29 L 254.14 1018.55 L 161.64 976.92 L 254.14 787.29 Z" fill="#e1eaef" fill-rule="nonzero" group-id="1,4" node-id="114" stroke="none" target-height="231.26001" target-width="92.5" target-x="161.64" target-y="787.29"></path><path d="M 254.14 787.29 L 254.14 1018.55 L 346.64 976.92 L 254.14 787.29 Z" fill="#f5f7fa" fill-rule="nonzero" group-id="1,4" node-id="116" stroke="none" target-height="231.26001" target-width="92.500015" target-x="254.14" target-y="787.29"></path></g><path d="M 1204.13 65.71 C 1204.05 65.68 1203.99 65.60 1203.99 65.52 C 1204.02 28.87 1175.53 0.00 1140.41 0.00 C 1119.72 0.00 1101.40 9.91 1089.77 25.19 C 1089.72 25.26 1089.63 25.29 1089.55 25.26 C 1085.52 23.92 1081.22 23.16 1076.74 23.16 C 1054.36 23.16 1036.22 41.30 1036.22 63.68 C 1036.22 63.85 1036.24 64.02 1036.25 64.20 C 1019.35 67.03 1006.57 82.02 1007.31 99.88 C 1008.09 118.79 1024.84 133.15 1043.76 133.15 L 1191.12 133.15 C 1209.06 133.15 1225.09 120.16 1227.05 102.33 C 1228.88 85.56 1218.76 70.91 1204.14 65.71 Z" fill="url(#_未命名的渐变_15)" fill-rule="nonzero" group-id="1" node-id="119" stroke="none" target-height="133.15" target-width="222.31" target-x="1006.57" target-y="0"></path><path d="M 327.98 283.05 C 327.92 283.03 327.89 282.98 327.89 282.92 C 327.91 257.43 308.09 237.34 283.66 237.34 C 269.27 237.34 256.52 244.23 248.43 254.86 C 248.39 254.91 248.33 254.93 248.27 254.91 C 245.47 253.97 242.48 253.45 239.36 253.45 C 223.79 253.45 211.17 266.07 211.17 281.64 C 211.17 281.76 211.19 281.88 211.19 282.00 C 199.43 283.97 190.55 294.39 191.06 306.82 C 191.60 319.97 203.25 329.96 216.42 329.96 L 318.93 329.96 C 331.41 329.96 342.56 320.92 343.92 308.52 C 345.20 296.85 338.15 286.66 327.99 283.05 Z" fill="url(#_未命名的渐变_15-2)" fill-rule="nonzero" group-id="1" node-id="121" stroke="none" target-height="92.619995" target-width="154.65001" target-x="190.55" target-y="237.34"></path><path d="M 353.12 1169.86 C 353.12 1182.86 514.70 1193.49 714.93 1193.49 C 915.16 1193.49 1076.74 1182.85 1076.74 1169.86 C 1076.74 1156.87 915.13 1146.21 714.93 1146.21 C 514.70 1146.12 353.12 1156.25 353.12 1169.84" fill="#ced6dd" fill-opacity="0.3" fill-rule="nonzero" group-id="1,5" node-id="125" stroke="none" target-height="47.369995" target-width="723.62" target-x="353.12" target-y="1146.12"></path><path d="M 926.22 688.88 C 926.22 816.76 463.11 816.76 463.11 688.88 C 463.11 561.00 566.78 457.32 694.67 457.32 C 822.56 457.32 926.23 560.99 926.23 688.88 Z" fill="url(#_未命名的渐变_56)" fill-rule="nonzero" group-id="1" node-id="128" stroke="none" target-height="359.44" target-width="463.12" target-x="463.11" target-y="457.32"></path><path d="M 1105.68 726.51 C 1105.68 754.91 1062.38 782.15 985.30 802.23 C 908.22 822.32 803.68 833.60 694.67 833.60 C 585.66 833.60 481.12 822.32 404.04 802.23 C 326.96 782.15 283.66 754.91 283.66 726.51 C 283.66 698.11 326.96 670.87 404.04 650.79 C 481.12 630.70 585.66 619.42 694.67 619.42 C 803.68 619.42 908.22 630.70 985.30 650.79 C 1062.38 670.87 1105.68 698.11 1105.68 726.51 Z" fill="url(#_未命名的渐变_14)" fill-rule="nonzero" group-id="1" node-id="130" stroke="none" target-height="214.18" target-width="822.02" target-x="283.66" target-y="619.42"></path><path d="M 932.01 734.61 C 932.01 756.67 825.75 774.56 694.67 774.56 C 563.59 774.56 457.33 756.67 457.33 734.61 C 457.33 712.55 563.59 694.66 694.67 694.66 C 825.75 694.66 932.01 712.55 932.01 734.61 Z" fill="#eefaff" fill-rule="nonzero" group-id="1" node-id="132" stroke="none" target-height="79.900024" target-width="474.68002" target-x="457.33" target-y="694.66"></path><path d="M 932.01 1042.00 L 468.90 1042.00 L 526.79 758.35 L 868.33 758.35 L 932.01 1042.00 Z" fill="url(#_未命名的渐变_64)" fill-rule="nonzero" group-id="1" node-id="134" stroke="none" target-height="283.65002" target-width="463.11002" target-x="468.9" target-y="758.35"></path><path d="M 517.69 975.35 L 571.44 858.03 L 608.63 858.03 L 556.33 973.92 L 634.66 973.92 L 634.66 1005.59 L 517.69 1005.59 L 517.69 975.36 Z M 588.12 929.77 L 620.99 929.77 L 620.99 1032.46 L 588.12 1032.46 L 588.12 929.77 Z" fill="#d0e4f1" fill-rule="nonzero" group-id="1,6" node-id="138" stroke="none" target-height="174.42993" target-width="116.96997" target-x="517.69" target-y="858.03"></path><path d="M 661.58 899.43 C 652.70 890.67 648.27 878.54 648.27 863.02 L 648.27 783.73 C 648.27 768.06 652.72 755.88 661.65 747.20 C 670.56 738.53 683.49 734.19 700.45 734.19 C 717.41 734.19 730.45 738.51 739.32 747.14 C 748.20 755.78 752.64 767.97 752.64 783.73 L 752.64 863.02 C 752.64 878.70 748.17 890.87 739.26 899.55 C 730.34 908.23 717.40 912.57 700.45 912.57 C 683.50 912.57 670.45 908.19 661.58 899.43 Z M 715.09 874.12 C 718.20 869.60 719.76 863.10 719.76 854.63 L 719.76 792.13 C 719.76 783.65 718.20 777.15 715.09 772.63 C 711.97 768.11 707.09 765.85 700.45 765.85 C 693.81 765.85 688.93 768.11 685.82 772.63 C 682.70 777.15 681.14 783.65 681.14 792.13 L 681.14 854.63 C 681.14 863.11 682.70 869.61 685.82 874.12 C 688.93 878.64 693.81 880.90 700.45 880.90 C 707.09 880.90 711.97 878.64 715.09 874.12 Z" fill="#d0e4f1" fill-rule="nonzero" group-id="1,6" node-id="140" stroke="none" target-height="178.38" target-width="104.369995" target-x="648.27" target-y="734.19"></path><path d="M 769.86 940.61 L 823.60 823.29 L 860.79 823.29 L 808.49 939.18 L 886.83 939.18 L 886.83 970.85 L 769.86 970.85 L 769.86 940.62 Z M 840.28 895.03 L 873.15 895.03 L 873.15 997.72 L 840.28 997.72 L 840.28 895.03 Z" fill="#d0e4f1" fill-rule="nonzero" group-id="1,6" node-id="142" stroke="none" target-height="174.43" target-width="116.97003" target-x="769.86" target-y="823.29"></path></g></svg>